<svg xmlns="http://www.w3.org/2000/svg" xmlns:xlink="http://www.w3.org/1999/xlink" width="40" height="41" viewBox="0 0 40 41">
  <defs>
    <polygon id="icone-precision-a" points="0 .133 39.708 .133 39.708 40.226 0 40.226"/>
  </defs>
  <g fill="none" fill-rule="evenodd" transform="translate(.139)">
    <polygon fill="#FDBA3D" points="34.829 1.742 34.829 5.606 38.857 5.606 35.326 9.72 31.01 9.573 31.01 5.104"/>
    <g transform="translate(0 .64)">
      <path fill="#FF5201" d="M31.7414794,23.7628264 C31.7414794,32.3619962 24.8340088,39.3319962 16.3136963,39.3319962 C7.79338381,39.3319962 0.885913194,32.3619962 0.885913194,23.7628264 C0.885913194,15.1644302 7.79338381,8.1936566 16.3136963,8.1936566 C24.8340088,8.1936566 31.7414794,15.1644302 31.7414794,23.7628264"/>
      <path fill="#FFF" d="M27.2124907,23.7628264 C27.2124907,29.8377887 22.3333373,34.7616566 16.313543,34.7616566 C10.2945152,34.7616566 5.41459535,29.8377887 5.41459535,23.7628264 C5.41459535,17.6886377 10.2945152,12.7639962 16.313543,12.7639962 C22.3333373,12.7639962 27.2124907,17.6886377 27.2124907,23.7628264"/>
      <path fill="#FF5201" d="M21.6953296,23.7628264 C21.6953296,26.7627887 19.2860321,29.194166 16.3140796,29.194166 C13.3421271,29.194166 10.9328296,26.7627887 10.9328296,23.7628264 C10.9328296,20.7636377 13.3421271,18.3322604 16.3140796,18.3322604 C19.2860321,18.3322604 21.6953296,20.7636377 21.6953296,23.7628264"/>
      <mask id="icone-precision-b" fill="#fff">
        <use xlink:href="#icone-precision-a"/>
      </mask>
      <path fill="#1E1777" d="M31.7421693,8.1936566 L31.7421693,4.89663774 L31.7674658,4.87343019 L34.1100726,2.77546792 L34.1100726,4.98714717 C34.1100726,5.41416604 34.4956522,5.80327925 34.9195598,5.80405283 L37.0973563,5.80405283 L34.9954493,8.1936566 L31.7421693,8.1936566 Z M19.7133125,19.1700528 L19.6596533,19.1313736 C18.6853558,18.4096189 17.528617,18.0290151 16.3143862,18.0290151 C13.1814562,18.0290151 10.6318782,20.6011849 10.6318782,23.7628264 C10.6318782,26.9252415 13.1814562,29.4974113 16.3143862,29.4974113 C19.4473162,29.4974113 21.9961277,26.9252415 21.9961277,23.7628264 C21.9961277,22.5490717 21.6136143,21.3809585 20.8899818,20.3861283 L20.8508873,20.3319774 L20.898414,20.2855623 L23.8082751,17.3482604 L23.8627009,17.4132415 C25.3291298,19.1893925 26.1363173,21.4443925 26.1363173,23.7628264 C26.1363173,29.2282038 21.7301314,33.6747698 16.3143862,33.6747698 C10.898641,33.6747698 6.49245513,29.2282038 6.49245513,23.7628264 C6.49245513,18.2974491 10.898641,13.8501094 16.3143862,13.8501094 C18.6232644,13.8501094 20.8577863,14.6608264 22.6070759,16.1321849 L22.6714669,16.1855623 L22.6116752,16.2459019 L19.7133125,19.1700528 Z M15.7256683,24.3430151 C15.8682484,24.4876755 16.0767527,24.5712226 16.3005881,24.5712226 L16.3036544,24.5712226 C16.529023,24.5704491 16.7405935,24.4861283 16.8824071,24.3376 L19.7056469,21.4884868 L19.7570064,21.5704868 C20.1632831,22.224166 20.3771533,22.9822792 20.3771533,23.7628264 C20.3771533,26.0240151 18.5550406,27.8643736 16.3143862,27.8643736 C14.0737318,27.8643736 12.2508526,26.0240151 12.2508526,23.7628264 C12.2508526,21.5016377 14.0737318,19.6620528 16.3143862,19.6620528 C17.0778798,19.6620528 17.8252756,19.8786566 18.4722521,20.2886566 L18.554274,20.3404868 L15.7448323,23.1749019 C15.5961197,23.3180151 15.5094984,23.5292038 15.5056656,23.7558642 C15.5018328,23.9832981 15.5823216,24.1968075 15.7256683,24.3430151 L15.7256683,24.3430151 Z M31.0093381,23.7628264 C31.0093381,31.9396189 24.4169236,38.5932226 16.3143862,38.5932226 C8.21184882,38.5932226 1.61943429,31.9396189 1.61943429,23.7628264 C1.61943429,15.586034 8.21184882,8.93320377 16.3143862,8.93320377 C19.9103184,8.93320377 23.3698029,10.2544868 26.055062,12.6549208 L26.1156202,12.7090717 L23.806742,15.039883 L23.7530828,14.9926943 C21.6856709,13.2033925 19.0441058,12.2170717 16.3143862,12.2170717 C10.0063654,12.2170717 4.87271421,17.3962226 4.87271421,23.7628264 C4.87271421,30.1286566 10.0063654,35.3085811 16.3143862,35.3085811 C22.6231736,35.3085811 27.7552917,30.1286566 27.7552917,23.7628264 C27.7552917,21.0150528 26.7733285,18.3485057 24.9903104,16.2551849 L24.9443168,16.201034 L24.9949097,16.1499774 L27.2677596,13.8570717 L27.3214188,13.9181849 C29.700054,16.6272792 31.0093381,20.123883 31.0093381,23.7628264 L31.0093381,23.7628264 Z M35.9697468,9.5466566 L39.5135529,5.52246792 C39.7128584,5.29039245 39.7657511,4.93144906 39.6400353,4.64986415 C39.5135529,4.36982642 39.2115283,4.17178868 38.9064375,4.17101509 L35.729047,4.17101509 L35.729047,0.963732075 C35.7321132,0.755637736 35.6424257,0.544449057 35.4814482,0.381996226 C35.3212372,0.220316981 35.1027676,0.133675472 34.9072949,0.132901887 C34.6811597,0.138316981 34.4565577,0.289939623 34.3699364,0.354920755 L30.3876581,3.92733585 C30.2205481,4.08127925 30.1216619,4.30948679 30.123195,4.53924151 L30.123195,8.6655434 L27.2539615,11.5618453 L27.1995358,11.5123358 C24.1976875,8.79550566 20.3319263,7.30016604 16.3143862,7.30016604 C7.31957318,7.30016604 0.000459935897,14.6855811 0.000459935897,23.7628264 C0.000459935897,32.8408453 7.31957318,40.2262604 16.3143862,40.2262604 C25.3091993,40.2262604 32.6283125,32.8408453 32.6283125,23.7628264 C32.6283125,19.695317 31.1457858,15.7887132 28.4528611,12.7639962 L28.4045678,12.7098453 L28.4559274,12.6580151 L31.2607698,9.82669434 L35.3626314,9.82669434 C35.5910662,9.82592075 35.8179679,9.72148679 35.9697468,9.5466566 L35.9697468,9.5466566 Z" mask="url(#icone-precision-b)"/>
    </g>
  </g>
</svg>
