<svg xmlns="http://www.w3.org/2000/svg" xmlns:xlink="http://www.w3.org/1999/xlink" width="34" height="31" viewBox="0 0 34 31">
  <defs>
    <polygon id="icone-vitesse-a" points=".24 .165 32.662 .165 32.662 28.264 .24 28.264"/>
  </defs>
  <g fill="none" fill-rule="evenodd" transform="translate(.013 .017)">
    <g transform="translate(0 .542)">
      <mask id="icone-vitesse-b" fill="#fff">
        <use xlink:href="#icone-vitesse-a"/>
      </mask>
      <path fill="#FFF" d="M16.4511314,0.164625814 C7.49855743,0.164625814 0.239627537,7.39178553 0.239627537,16.3069483 C0.239627537,22.5155949 2.53234047,24.6065611 5.81287968,28.1261427 L7.37826568,26.317568 L25.5152342,26.317568 L27.5697535,28.2649587 C30.6702534,23.8886839 32.6618387,22.5441514 32.6618387,16.3069483 C32.6618387,7.39178553 25.4037054,0.164625814 16.4511314,0.164625814" mask="url(#icone-vitesse-b)"/>
    </g>
    <path fill="#FF5201" d="M19.0938854,17.3739281 C19.0938854,18.8279269 17.9108837,20.0066734 16.4506534,20.0066734 C14.9904231,20.0066734 13.8066249,18.8279269 13.8066249,17.3739281 C13.8066249,15.9207224 14.9904231,14.7419759 16.4506534,14.7419759 C17.9108837,14.7419759 19.0938854,15.9207224 19.0938854,17.3739281"/>
    <path fill="#1E1777" d="M32.8521546,16.8720189 L32.8736637,16.7688984 C32.88163,16.6705374 32.88163,16.6705374 32.8927829,16.5650372 L32.9015459,16.4523979 C32.9015459,15.8289155 32.8441882,15.2006738 32.7852373,14.6105073 C32.4108193,11.9420664 31.5345218,9.57743428 30.1802438,7.58165623 C29.563649,6.66071095 28.9215619,5.86509672 28.2715085,5.21781736 L28.1018254,5.04965164 C28.0253486,5.00840344 27.9719741,4.97826053 27.9185996,4.92432058 C26.7841926,3.85979986 25.6967871,3.03404272 24.4978528,2.32727076 C22.20036,1.06364817 19.7857621,0.365601791 17.3217728,0.254548958 L16.5976324,0.255342192 C16.5474445,0.255342192 16.5076128,0.256135427 16.4725609,0.254548958 C16.3857278,0.250820605 16.3474893,0.248996316 16.3060643,0.253755723 L16.1562971,0.254548958 C14.2109167,0.254548958 12.1842795,0.662271501 10.1329467,1.46661131 C8.14853119,2.27967669 6.31547613,3.48777286 4.83055018,4.96001614 L4.83055018,5.01950872 L4.7492935,5.10041865 C4.45931869,5.38836278 4.17173378,5.67630691 3.94548969,5.95711193 C2.19608122,7.99889759 1.02502909,10.2500972 0.464995323,12.6504248 C0.152714756,14.0171679 0.000557643868,15.2633393 0.000557643868,16.4587438 L0.000557643868,16.6935412 C0.000557643868,17.650182 0.133595538,18.7440524 0.406841034,20.0378179 C1.00272334,22.4103824 2.22555668,24.7639092 3.94309979,26.8398039 C4.31911109,27.2673573 4.74610696,27.7551966 5.16115333,28.169265 C5.31251381,28.3191863 5.55150403,28.412788 5.80244378,28.4183406 L5.81359665,28.4183406 C6.09002868,28.4183406 6.30750979,28.3366375 6.47639622,28.169265 C6.65006246,27.9654037 6.83647483,27.7440913 7.02527711,27.5203991 L7.11927994,27.4085531 C7.61478635,26.8199731 8.1182591,26.2226675 8.64722414,25.6547116 C8.82885671,25.4746473 8.92763934,25.2509552 8.92763934,25.0225036 C8.92763934,24.7805671 8.82487354,24.5275253 8.68466594,24.4236116 C8.49506702,24.2379947 8.20907538,24.1269419 7.93105008,24.1261486 C7.77013,24.1301148 7.53671621,24.1800886 7.35189709,24.3855363 C7.11927994,24.6473037 6.89622239,24.9138305 6.68113118,25.1708385 C6.46205681,25.4326059 6.23581272,25.7030989 5.9968225,25.9696257 L5.80085051,26.1901449 L5.59133574,25.9799377 C5.54513096,25.9347233 5.50609589,25.8879225 5.46945072,25.8442946 C5.42722912,25.7927344 5.39377048,25.7514862 5.37066809,25.7411741 L5.30693737,25.6951665 C5.22568069,25.6166363 5.1723062,25.5452452 5.12371152,25.4817864 C5.08069328,25.4238803 5.04723465,25.3802524 5.00262314,25.3358313 L4.96677461,25.3001357 L4.96836788,25.2969628 C4.92773954,25.2477822 4.90623042,25.2049476 4.89109437,25.1763911 L4.8568391,25.1280038 L4.3286707,24.4259913 C3.69375332,23.4772828 3.16797482,22.5333337 2.76408133,21.6147681 C2.26698165,20.3408335 1.96187079,19.2572751 1.80254397,18.2006868 L1.8009507,18.177683 C1.79935744,18.0499722 1.7985608,17.9666826 1.75474593,17.8373853 L1.63286091,17.4717042 L4.9643847,17.4717042 C5.22568069,17.4717042 5.48697667,17.3566852 5.66303281,17.1655157 C5.81200338,17.0036959 5.88210719,16.8030075 5.86458123,16.601526 C5.8637846,16.0819574 5.46865409,15.6805807 4.9643847,15.6805807 L1.74040651,15.6805807 L1.74040651,15.4029486 C1.74040651,15.2720649 1.75633919,15.1419744 1.77147524,15.0166434 C1.78661129,14.9055906 1.79935744,14.8032633 1.79935744,14.6993496 C1.97222703,13.4706293 2.31557633,12.2165255 2.82064235,10.9600421 C3.1185835,10.30721 3.42528763,9.6353404 3.8522835,9.02613629 C4.02116993,8.68425221 4.26892314,8.37409751 4.51030327,8.0750481 C4.54535517,8.03776608 4.56208449,8.0107961 4.58040707,7.98461936 C4.62342531,7.91798766 4.66485028,7.86008154 4.70707189,7.81724688 C4.72141131,7.80217542 4.74531033,7.77599868 4.76841272,7.74823548 C4.8170074,7.67843084 4.87038188,7.61179914 4.92375637,7.54516744 C4.98111402,7.47377633 5.03289524,7.4087311 5.08547309,7.33099412 L5.43519546,6.97403858 L7.28099666,8.8127562 C7.43315377,8.96267753 7.67373727,9.05548597 7.92308374,9.06183184 C7.93582989,9.06183184 7.94698277,9.06262508 7.95893228,9.06262508 C8.22022826,9.06262508 8.42894639,8.98092192 8.59703619,8.81354944 C8.88860427,8.4795977 8.97384412,7.88149888 8.59703619,7.50471248 L6.67396148,5.58984435 L7.01970068,5.41850569 C7.03881989,5.40898687 7.06829536,5.3796372 7.09378765,5.35346046 C7.1439756,5.30427992 7.19973998,5.2487535 7.27701349,5.2027459 L7.51281718,4.99729816 C7.54468255,4.97270789 7.57495464,4.95525673 7.60761664,4.94256498 C7.92308374,4.69507581 8.27838255,4.46821073 8.6089857,4.30321795 C9.30365063,3.89946158 10.027791,3.47984052 10.8140689,3.1784114 C12.1085993,2.66280896 13.3043471,2.33123693 14.4674329,2.16545092 C14.708813,2.10437186 14.9709056,2.10437186 15.2736266,2.10437186 L15.5516519,2.10437186 L15.5516519,4.49359424 C15.5516519,4.75456839 15.6671638,5.01474932 15.8599493,5.18926091 C16.0248525,5.33918224 16.2256043,5.40978011 16.4247628,5.38915601 C16.9385918,5.38836278 17.3504517,4.98698611 17.3504517,4.49359424 L17.3504517,2.10437186 L17.6292736,2.10437186 C17.7631081,2.10437186 17.8985359,2.12023655 18.0172344,2.13530801 C18.1279665,2.14879299 18.231529,2.16227798 18.335888,2.16227798 C19.5897901,2.33837604 20.8659979,2.69057217 22.0378467,3.18158434 C22.69029,3.47666758 23.3626492,3.7804764 23.9744642,4.20723658 C24.3241865,4.37857523 24.6324839,4.62527117 24.9312217,4.86324152 C24.9670703,4.89655737 24.9933592,4.91400853 25.0196481,4.93066646 C25.0969216,4.9822267 25.1494995,5.01950872 25.1893312,5.05917045 C25.2012807,5.0718622 25.2299595,5.094866 25.2578417,5.11945627 C25.3207758,5.16229094 25.3821166,5.21147148 25.4434574,5.25985878 L25.4442541,5.25985878 L25.4593901,5.27255054 C25.5318838,5.33045666 25.5980045,5.38281014 25.6768712,5.43437038 L26.0361532,5.78260033 L24.1879621,7.62290442 C24.0381949,7.77203251 23.9441921,8.0107961 23.9386156,8.26145821 C23.9322426,8.52639854 24.0206689,8.76357566 24.1879621,8.93015491 C24.525735,9.22285845 25.1351601,9.29424956 25.5024084,8.93015491 L27.3490062,7.09143729 L27.5465715,7.28895269 C27.5927762,7.33496029 27.6318113,7.38176113 27.6684565,7.42538903 C27.7106781,7.47615604 27.7441367,7.51740423 27.7672391,7.52930275 L27.8317665,7.57372388 L28.0795197,7.8521492 C28.1042153,7.88467181 28.1217413,7.91402149 28.1336908,7.9441644 C28.3862238,8.26463115 28.6132645,8.62000022 28.7765745,8.94443313 C29.1836545,9.63930657 29.6042773,10.3571838 29.9069983,11.1385198 C30.4248105,12.4275259 30.7570069,13.6181709 30.9227068,14.7770866 C30.9258933,14.9190755 30.9394361,15.0229893 30.9529789,15.1324556 C30.9697082,15.2601664 30.9848442,15.3894636 30.9848442,15.5203473 L30.9848442,15.7979794 L28.586179,15.7979794 C28.3232897,15.7979794 28.0619937,15.9122052 27.8875309,16.1041679 C27.7385603,16.2659878 27.6668632,16.4666761 27.6859824,16.6681577 C27.6867791,17.1790007 28.0898759,17.5883097 28.586179,17.5883097 L30.9848442,17.5883097 L30.9848442,17.866735 C30.9848442,17.9976187 30.9697082,18.1427806 30.9537755,18.2784237 L30.9489957,18.3172922 C30.9378428,18.4291383 30.9258933,18.5346385 30.9258933,18.6290334 C30.7586001,19.8157122 30.4248105,21.0158761 29.905405,22.3096416 C29.5676322,23.1504702 29.115144,23.9738476 28.5200583,24.8289544 C28.4611074,24.9170034 28.3846305,25.0240901 28.3065604,25.13197 C28.2364566,25.2303311 28.1671494,25.3271057 28.1105884,25.4119818 L27.980737,25.5476249 C27.9448885,25.6134634 27.8875309,25.6705762 27.8413261,25.7165838 C27.8158338,25.7427606 27.7847651,25.7721103 27.7752055,25.7911479 L27.7305939,25.8538134 C27.6732363,25.9125128 27.6381844,25.9474151 27.5983527,26.0267385 L27.4254831,26.3702091 L25.503205,24.4569274 C25.3518445,24.3062129 25.111261,24.2134044 24.8619146,24.2078518 L24.834829,24.2070586 C24.5783128,24.2070586 24.3488822,24.2951076 24.1879621,24.4569274 C23.896394,24.7900859 23.8095609,25.3873915 24.1879621,25.7649711 L26.7204619,28.2866637 C27.0845237,28.6467922 27.6732363,28.6459989 28.0357048,28.2866637 C29.8353012,26.4947469 31.2174614,24.2602053 32.0324181,21.8257685 C32.5685528,20.2258145 32.8521546,18.5124279 32.8521546,16.8720189" transform="translate(0 .25)"/>
    <path fill="#1E1777" d="M18.173534,17.3739281 C18.173534,18.3194636 17.4007989,19.0889011 16.4512111,19.0889011 C15.5016232,19.0889011 14.7288882,18.3194636 14.7288882,17.3739281 C14.7288882,16.4291858 15.5016232,15.658955 16.4512111,15.658955 C17.4007989,15.658955 18.173534,16.4291858 18.173534,17.3739281 M16.4512111,8.29932515 C15.9740273,8.29932515 15.5860665,8.68563036 15.5860665,9.16077784 L15.5860665,14.2604826 L15.5295054,14.2771405 C14.1314126,14.6904157 13.1913844,15.9350006 13.1913844,17.3739281 C13.1913844,19.1634651 14.6540046,20.6190505 16.4512111,20.6190505 C18.2484176,20.6190505 19.7102412,19.1634651 19.7102412,17.3739281 C19.7102412,15.9350006 18.7702129,14.6904157 17.3729167,14.2771405 L17.3163557,14.2604826 L17.3163557,9.16077784 C17.3163557,8.68563036 16.9283949,8.29932515 16.4512111,8.29932515"/>
  </g>
</svg>
